<?xml version="1.0" encoding="UTF-8"?>
<svg id="Layer_1" data-name="Layer 1" xmlns="http://www.w3.org/2000/svg" viewBox="0 0 960 960">
  <defs>
    <style>
      .cls-1 {
        fill: #34a952;
      }

      .cls-1, .cls-2, .cls-3, .cls-4 {
        stroke-width: 0px;
      }

      .cls-2 {
        fill: #438edc;
      }

      .cls-3 {
        fill: #7f7f7f;
      }

      .cls-4 {
        fill: #fbbd04;
      }
    </style>
  </defs>
  <g>
    <rect class="cls-4" x="225.71" y="-26.29" width="254.9" height="758.91" rx="119.07" ry="119.07" transform="translate(223.9 -129.26) rotate(30)"/>
    <rect class="cls-2" x="479.06" y="-28.18" width="254.9" height="758.91" rx="119.07" ry="119.07" transform="translate(-94.38 350.32) rotate(-30)"/>
    <circle class="cls-1" cx="228.89" cy="569.54" r="129.22"/>
  </g>
  <g>
    <path id="path4243" class="cls-3" d="M442.15,902.77c9.55-2.79,15.15-11,15.15-22.21,0-6.88-1.87-12.29-5.65-16.33-11.02-11.79-29.74-6.69-34.41,9.36-1.91,6.58-1.91,7.08.09,14.27,1.79,6.43,7.44,13.08,11.92,14.05,1.33.29,3.29.9,4.35,1.36,2.69,1.16,2.96,1.15,8.56-.49h0ZM424.83,954.68c-10.03-3.28-19.1-11-23.85-20.32-1.36-2.68-.68-3.23,8.3-6.68,6.33-2.43,8.35-2.7,8.35-1.11,0,2.31,6.02,8.49,10.14,10.43,8.25,3.88,19.11,1.55,24.26-5.2,2.38-3.12,4.49-11.4,4.11-16.08l-.2-2.48-3.91,2.73c-5.57,3.88-14.77,5.59-22.3,4.14-9-1.74-14.7-4.74-20.73-10.9-6.37-6.52-9.12-11.79-11.12-21.38-4-19.2,8.18-39.75,27.2-45.85,9.66-3.1,23.2-1.1,28.92,4.26l2.2,2.06.32-2.76.32-2.76h17.41l.28,38.7c.3,40.66-.14,46.22-4.36,54.87-4.18,8.56-12.28,15.3-22.22,18.5-6.28,2.02-16.62,1.94-23.1-.17Z"/>
    <path id="path4239" class="cls-3" d="M276.63,899.69c7.49-5.19,11.15-16.47,8.5-26.24-2.2-8.14-11.57-15.67-19.5-15.67-12.79,0-22.09,9.44-22.14,22.47-.04,10.38,6.39,19.96,14.87,22.14,5.5,1.42,14.18.13,18.27-2.71ZM257.23,920.08c-15.32-2.73-26.44-12.73-31.68-28.5-2.42-7.28-1.61-19.9,1.73-27.04,7.19-15.38,20.87-24.21,37.42-24.15,31.54.1,50.2,32.13,35.38,60.74-4.24,8.18-16.34,16.9-25.89,18.66-8.54,1.57-9.68,1.59-16.97.29Z"/>
    <path id="path4235" class="cls-3" d="M530.82,876.82c3.57-1.59,2.26-1.16,2.88-1.18.63-.01,4.66-1.75,8.1-3.35,3.45-1.6,6.96-2.9,7.81-2.9s-4.13,2.14-4.13,1.72,8.06-4.07,11-5.07c5.18-1.76,5.28-1.86,3.63-3.69-4.87-5.39-14.73-6.46-21.29-2.32-5.31,3.36-9.56,9.06-10.37,13.94-.73,4.39-1.09,4.37,2.37,2.83ZM540.99,920.06c-15.3-3.59-25.33-13.25-30.4-29.28-1.38-4.35-1.33-16.97.08-21.32,5.93-18.32,19.41-29.09,36.39-29.09,9.7,0,17.7,3.29,24.66,10.14,4.97,4.89,11.36,15.59,11.36,19.03,0,2.22-1.16,2.89-13.06,7.57-9.57,3.76-14.19,5.65-21.77,8.92-1.33.58-3.29,1.4-4.35,1.83-1.06.43-3.89,1.63-6.29,2.65-2.39,1.03-4.96,2.05-5.71,2.28-2.33.71,5.68,8.18,10.06,9.4,8.62,2.38,16.21.74,22.22-4.8,2.27-2.09,4.56-3.8,5.11-3.8,1.64,0,13.76,8.15,13.78,9.26.03,2.06-8.46,9.82-14.07,12.86-5.15,2.79-16.96,6.11-20.74,5.83-.8-.06-4.07-.72-7.26-1.47h0Z"/>
    <path id="path4233" class="cls-3" d="M150.11,919.66c-11.81-1.89-23.21-8.14-33.18-18.19-7-7.06-11.6-14.51-15.45-25.05-2.45-6.7-2.4-28.78.09-35.56,7.86-21.43,22.9-35.81,44.18-42.22,6.76-2.04,28.26-1.75,34.35.46,9.23,3.35,20.52,9.88,23.68,13.68,1.16,1.39.57,2.34-4.86,7.82-3.4,3.43-6.41,6.24-6.69,6.24-.28,0-1.78-1.09-3.32-2.42-8.02-6.89-23.43-10.54-35.11-8.31-13.3,2.55-24.33,10.97-30.52,23.3-3.1,6.17-5.11,6.53-5.11,19.35s2.13,13.44,4.58,18.65c1.44,3.08,5.1,8.19,8.14,11.38,11.07,11.6,27.24,16.17,42.72,12.05,8.68-2.31,12.4-4.29,17.82-9.51,4.74-4.56,7.83-10.22,8.92-16.34l.65-3.61-19.63-.26-19.63-.26v-18.07l28.06.08c15.43.04,28.33.08,28.65.08.33,0,1.06,2.34,1.63,5.19,2.15,10.73-1.8,26.99-9.39,38.59-6.25,9.56-12.94,14.72-27.18,20.96-5.91,2.59-23.18,3.62-33.38,1.98h0Z"/>
    <path id="path4229" class="cls-3" d="M357.94,902.14c4.5-1.13,10.54-6.8,12.75-11.97.89-2.07,2.32-6.07,2.1-10.06-.3-5.7-1.51-9.75-2.7-11.19-5.04-6.11-7.68-8.34-11.38-9.65-8.28-2.92-15.99-1.32-22.22,4.61-12.18,11.6-7.51,33.13,8.36,38.51,4.55,1.54,6.08,1.51,13.09-.25ZM341.24,919.68c-10.28-2.17-21.01-10.34-25.87-19.7-8.11-15.6-6.05-33.69,5.26-46.21,16.14-17.87,44.59-17.86,61.04.02,14.15,15.38,12.68,43.29-2.98,56.7-7.46,6.39-14.73,9.27-24.51,9.71-4.75.22-10.57-.01-12.94-.52h0Z"/>
    <path id="path4213" class="cls-3" d="M484.39,859.71v-59.09l9.43.28,9.43.28v117.07l-9.43.28-9.43.27v-59.09h0Z"/>
    <path id="path4203" class="cls-3" d="M690.05,869.68c-.35-.91-4.36-11.9-8.91-24.43-4.55-12.53-8.61-23.14-9.02-23.58-.65-.7-8.4,19.39-9.03,23.43-.13.85-.52,2-.86,2.55-.91,1.45-8.52,21.86-8.52,22.84,0,.46,8.32.84,18.49.84,17,0,18.44-.13,17.86-1.64h0ZM619.85,916.31c0-.53,3.97-11.41,8.81-24.19,4.84-12.77,10.66-28.23,12.94-34.35,6.16-16.58,15.84-42.24,18.49-49.03,1.28-3.28,2.33-6.44,2.33-7.01,0-.67,3.23-1.04,9.09-1.04,7.76,0,9.18.25,9.75,1.69,2.56,6.59,35.2,93.14,37.3,98.93,1.45,3.99,3.35,8.94,4.21,11,.86,2.06,1.57,3.91,1.57,4.11s-3.89.37-8.64.37h-8.64l-2.08-5.57c-1.15-3.06-3.62-10.02-5.51-15.48l-3.43-9.92h-47.98l-1.54,4.12c-.85,2.26-3.4,9.26-5.66,15.56l-4.12,11.45-8.45.16c-5.1.1-8.44-.22-8.44-.81ZM828.65,918.62c-9.24-1.13-16.96-6.56-21.42-15.06-1.71-3.27-1.41-3.85,3-5.61,2.26-.91,4.39-2.1,4.73-2.65.38-.61,1.34-.14,2.42,1.19,8.2,10.06,10.04,11.08,18.89,10.44,5.37-.39,6.25-.77,8.71-3.71,5.32-6.37,1.51-10.44-13.44-14.36-16.77-4.4-23.49-10.04-23.49-19.74,0-7.93,2.93-12.5,10.48-16.33,5.88-2.98,7.03-3.22,15.59-3.22,8.22,0,9.81.3,14.33,2.68,5.31,2.8,12.06,10.64,11.16,12.98-.27.69-.84,1.04-1.26.78-.43-.26-2.88.42-5.44,1.52-3.12,1.34-4.78,1.64-5.02.92-.54-1.62-4.16-4.82-7.34-6.48-3.79-1.99-12.35-1.26-15.85,1.33-1.64,1.22-2.73,3.04-2.91,4.88-.43,4.29,2.82,6.33,14.88,9.36,14.94,3.74,18.51,5.85,22.17,13.07,2.59,5.1,1.7,14.29-1.83,18.92-5.8,7.61-15.39,10.69-28.35,9.11ZM773.41,903.8c2.31-1.53,4.97-4.58,6.59-7.55,2.25-4.14,2.71-6.13,2.69-11.81-.03-8.57-1.99-13.46-7.31-18.22-8.16-7.29-17.92-7.27-25.79.06-4.84,4.51-6.96,9.48-7.04,16.51-.13,10.94,4.12,18.76,12.26,22.58,5.41,2.55,13.4,1.87,18.61-1.58h0ZM755.35,918.54c-9.68-1.49-18.2-8.49-23.14-19.04-2.2-4.68-2.55-6.72-2.55-14.62,0-12.12,2.73-19.8,9.34-26.26,7.13-6.97,12.25-9.06,22.1-9.04,9.06.02,14.52,2.06,19.33,7.21l2.44,2.62-.48-19.13-.48-19.13,6.66-.31c3.84-.18,6.81.1,7.02.66.2.53.26,22.24.12,48.25l-.25,47.28h-6.29s-6.29-.01-6.29-.01l.34-4.16.34-4.17-3.68,3.23c-6.86,6.03-14.69,8.14-24.53,6.63h0Z"/>
  </g>
</svg>